<svg id="Ñëîé_1" data-name="Ñëîé 1" xmlns="http://www.w3.org/2000/svg" width="53.41mm" height="42.46mm" viewBox="0 0 151.41 120.35"><defs><style>.cls-1{fill:#1d1d1b;}</style></defs><title>bubble</title><path class="cls-1" d="M151.41,57.64a44.59,44.59,0,0,1-1.23,10.43,47,47,0,0,1-3.59,9.87,52.71,52.71,0,0,1-5.59,8.9,60.69,60.69,0,0,1-7.14,7.71,69.73,69.73,0,0,1-8.29,6.47,78.38,78.38,0,0,1-9.13,5.22,88.34,88.34,0,0,1-19.85,6.83,95.68,95.68,0,0,1-10.38,1.67,100.19,100.19,0,0,1-21,0,95.71,95.71,0,0,1-10.38-1.67,91.38,91.38,0,0,1-10.13-2.82c-3.38-1.16-9.72-4-9.72-4L14.32,120.35l3.22-25.81s-5-5-7.14-7.71a52.83,52.83,0,0,1-5.59-8.9,47.09,47.09,0,0,1-3.59-9.87,44.77,44.77,0,0,1,0-20.85,47.06,47.06,0,0,1,3.59-9.87,52.87,52.87,0,0,1,5.59-8.9,60.78,60.78,0,0,1,7.14-7.71,69.69,69.69,0,0,1,8.29-6.46A78,78,0,0,1,35,9.05a85.22,85.22,0,0,1,9.72-4A91.62,91.62,0,0,1,54.81,2.22,96.22,96.22,0,0,1,65.2.55a100.06,100.06,0,0,1,21,0A96.19,96.19,0,0,1,96.59,2.22a88.45,88.45,0,0,1,19.85,6.83,78.1,78.1,0,0,1,9.13,5.22,69.72,69.72,0,0,1,8.29,6.46A60.68,60.68,0,0,1,141,28.45a52.75,52.75,0,0,1,5.59,8.9,47,47,0,0,1,3.59,9.87A44.58,44.58,0,0,1,151.41,57.64Z"/></svg>