<svg id="Calque_2" data-name="Calque 2" xmlns="http://www.w3.org/2000/svg" width="19.93mm" height="20.24mm" viewBox="0 0 56.5 57.38"><defs><style>.cls-1{fill:#394553;}</style></defs><title>comment</title><path class="cls-1" d="M44.25,13.5h-32a1.25,1.25,0,0,1,0-2.5h32a1.25,1.25,0,0,1,0,2.5Z"/><path class="cls-1" d="M44.25,21.5h-32a1.25,1.25,0,0,1,0-2.5h32a1.25,1.25,0,0,1,0,2.5Z"/><path class="cls-1" d="M29.25,30.5h-17a1.25,1.25,0,0,1,0-2.5h17a1.25,1.25,0,0,1,0,2.5Z"/><path class="cls-1" d="M13.25,57.38A1.25,1.25,0,0,1,12,56.13V42.5H6.25A6.26,6.26,0,0,1,0,36.25v-30A6.26,6.26,0,0,1,6.25,0h44A6.26,6.26,0,0,1,56.5,6.25v30a6.26,6.26,0,0,1-6.25,6.25h-17a1.25,1.25,0,0,1,0-2.5h17A3.75,3.75,0,0,0,54,36.25v-30A3.75,3.75,0,0,0,50.25,2.5h-44A3.75,3.75,0,0,0,2.5,6.25v30A3.75,3.75,0,0,0,6.25,40h7a1.25,1.25,0,0,1,1.25,1.25V52.86L25.57,40.54a1.25,1.25,0,0,1,1.86,1.67L14.18,57A1.25,1.25,0,0,1,13.25,57.38Z"/></svg>