<svg id="Calque_2" data-name="Calque 2" xmlns="http://www.w3.org/2000/svg" width="16.05mm" height="21.34mm" viewBox="0 0 45.5 60.5"><defs><style>.cls-1{fill:#394553;}</style></defs><title>doc</title><path class="cls-1" d="M34.25,30.5h-23a1.25,1.25,0,0,1,0-2.5h23a1.25,1.25,0,0,1,0,2.5Z"/><path class="cls-1" d="M34.25,39.5h-23a1.25,1.25,0,0,1,0-2.5h23a1.25,1.25,0,0,1,0,2.5Z"/><path class="cls-1" d="M34.25,47.5h-23a1.25,1.25,0,0,1,0-2.5h23a1.25,1.25,0,0,1,0,2.5Z"/><path class="cls-1" d="M40.25,60.5h-35A5.26,5.26,0,0,1,0,55.25V10.41L11.86,0H40.25A5.26,5.26,0,0,1,45.5,5.25v50A5.26,5.26,0,0,1,40.25,60.5ZM2.5,11.54V55.25A2.75,2.75,0,0,0,5.25,58h35A2.75,2.75,0,0,0,43,55.25v-50A2.75,2.75,0,0,0,40.25,2.5H12.8Z"/><polygon class="cls-1" points="17.5 15.5 8.75 15.5 8.75 13 15 13 15 1.75 17.5 1.75 17.5 15.5"/></svg>