<svg xmlns="http://www.w3.org/2000/svg" width="45.83" height="60.27" viewBox="0 0 45.83 60.27">
  <title>download</title>
  <g id="Слой_2" data-name="Слой 2">
    <g id="Calque_2" data-name="Calque 2">
      <g>
        <path d="M40.58,0H12L0,10.37V55a5.25,5.25,0,0,0,5.25,5.25H40.58A5.25,5.25,0,0,0,45.83,55V5.25A5.26,5.26,0,0,0,40.58,0Zm2.75,55a2.75,2.75,0,0,1-2.75,2.75H5.25A2.75,2.75,0,0,1,2.5,55V11.51l10.38-9h1.9V13.08H8.51v2.5h8.77V2.5h23.3a2.75,2.75,0,0,1,2.75,2.75Z"/>
        <path d="M34.27,33.87H30.14V23.68A3.2,3.2,0,0,0,27,20.49H19.29a3.21,3.21,0,0,0-3.18,3.19V33.87H11.76a2.58,2.58,0,0,0-2.47,1.61,3,3,0,0,0,.56,3.21L20.66,49.54a3.17,3.17,0,0,0,2.25.94h0a3.13,3.13,0,0,0,2.25-.94L36,38.69a3.07,3.07,0,0,0,.49-3.23A2.42,2.42,0,0,0,34.27,33.87Zm0,3.05L23.41,47.77a.67.67,0,0,1-.49.21h0a.7.7,0,0,1-.48-.2L11.63,36.93a.64.64,0,0,1,0-.54.32.32,0,0,1,.15,0h6.84V23.68a.75.75,0,0,1,.2-.49.72.72,0,0,1,.48-.2H27a.69.69,0,0,1,.69.69V36.37h6.55a.17.17,0,0,0,0,.05A1.17,1.17,0,0,1,34.27,36.92Z"/>
      </g>
    </g>
  </g>
</svg>
