<svg id="Ñëîé_1" data-name="Ñëîé 1" xmlns="http://www.w3.org/2000/svg" width="162.39mm" height="186.66mm" viewBox="0 0 460.33 529.1"><title>fire</title><path d="M347.38,99.42c12.52,27.4,14.9,73.78-10.41,96.29C294.14,33.29,188.23,0,188.23,0c10.62,71-29.4,147.66-75.88,211C98.45,159.83,78,111.13,61.52,61.42c-3.2,32-1.81,73.77-8.09,107a147.5,147.5,0,0,1-5.89,21.52c-12.1,34.48-34.29,62.76-42.81,99.57A175.34,175.34,0,0,0,.28,338.74c-.09.66-.19,1.31-.28,2,.32,2.5.7,5,1.11,7.46A132.66,132.66,0,0,0,7,374.47,231.75,231.75,0,0,0,149.21,527.66c-1.7-.89-3.39-1.8-5.1-2.76-30.36-17.15-31.15-48.7-23.22-75.68,11.35-38.64,38.78-71.23,59.6-106.43,26-43.92,36-98.44,26.91-140,61,34.43,57.91,107.86,49.14,171.77-1.68,12.27-4.49,27.21.56,39.14,9.26,21.86,33.72,7.67,41-6.37,7.9-15.24,16.42-28,22.7-50.45,11.51,34.39,22.85,71.73,22.87,107.7,0,.63,0,1.26,0,1.89-.29,26.83-15.43,48.52-38.45,62.69C393.42,498.43,457.31,415.86,460.33,318,456.72,210.09,369.94,115.87,347.38,99.42Z"/></svg>