<svg id="Icons" xmlns="http://www.w3.org/2000/svg" width="119.94mm" height="81.49mm" viewBox="0 0 340 231"><defs><style>.cls-1{fill:#262626;}</style></defs><title>mail</title><path class="cls-1" d="M340,180.93V16.6a17.13,17.13,0,0,0-.33-3.24L256.05,97Z"/><path class="cls-1" d="M2.57,7.68A16.94,16.94,0,0,0,0,16.6V201.32l98.11-98.11Z"/><path class="cls-1" d="M194.26,158.3a28.89,28.89,0,0,1-40.86,0l-47.22-47.22L.06,217.2A17.08,17.08,0,0,0,16.82,231h306.1A17.09,17.09,0,0,0,340,213.91V197.14l-92.29-92.29Z"/><path class="cls-1" d="M110.78,99.53,115,103.7l47.22,47.22a17.09,17.09,0,0,0,24.17,0l53.45-53.45L244,93.3l4.17-4.17L333.69,3.57A16.93,16.93,0,0,0,323.34,0H17.24a16.9,16.9,0,0,0-5.12.87l94.49,94.49Z"/></svg>