<svg id="Calque_2" data-name="Calque 2" xmlns="http://www.w3.org/2000/svg" width="20.47mm" height="20.46mm" viewBox="0 0 58.02 58"><defs><style>.cls-1{fill:#394553;}</style></defs><title>percent</title><path class="cls-1" d="M19.09,44.65a1.25,1.25,0,0,1-1-2L37.9,13.9A1.25,1.25,0,0,1,40,15.32L20.12,44.11A1.25,1.25,0,0,1,19.09,44.65Z"/><path class="cls-1" d="M21,25.9a6.12,6.12,0,1,1,6.12-6.12A6.13,6.13,0,0,1,21,25.9Zm0-9.75a3.62,3.62,0,1,0,3.62,3.62A3.63,3.63,0,0,0,21,16.15Z"/><path class="cls-1" d="M37,44.35a6.12,6.12,0,1,1,6.13-6.12A6.13,6.13,0,0,1,37,44.35Zm0-9.75a3.62,3.62,0,1,0,3.63,3.62A3.63,3.63,0,0,0,37,34.6Z"/><path class="cls-1" d="M29,58A29,29,0,1,1,58,29,29,29,0,0,1,29,58ZM29,2.5A26.5,26.5,0,1,0,55.52,29,26.53,26.53,0,0,0,29,2.5Z"/></svg>