<svg id="Isolation_Mode" data-name="Isolation Mode" xmlns="http://www.w3.org/2000/svg" width="96.66mm" height="96.66mm" viewBox="0 0 274 274"><defs><style>.cls-1{fill-rule:evenodd;}</style></defs><title>soc-insta</title><path class="cls-1" d="M35.17,0H238.78A35.32,35.32,0,0,1,274,35.22V238.78A35.32,35.32,0,0,1,238.78,274H35.22A35.32,35.32,0,0,1,0,238.78V35.17A35.27,35.27,0,0,1,35.17,0ZM199.42,30h0A12.39,12.39,0,0,0,187,42.29V71.65A12.39,12.39,0,0,0,199.35,84h31.3A12.39,12.39,0,0,0,243,71.65V42.35A12.39,12.39,0,0,0,230.65,30ZM243,115H218.84a80.44,80.44,0,0,1,3.52,23.58c0,45.71-38.21,82.76-85.33,82.76s-85.33-37.05-85.33-82.76A80.44,80.44,0,0,1,55.21,115H30V231.09A10.94,10.94,0,0,0,40.91,242H232.09A10.94,10.94,0,0,0,243,231.09V115ZM136.84,82.67h0c-30.43,0-55.1,23.91-55.1,53.39s24.67,53.4,55.1,53.4,55.11-23.91,55.11-53.4-24.67-53.39-55.11-53.39Z"/></svg>