<svg id="Isolation_Mode" data-name="Isolation Mode" xmlns="http://www.w3.org/2000/svg" width="67.03mm" height="94.16mm" viewBox="0 0 190 266.92"><title>soc-you</title><polygon points="68.28 0 49.12 0 36.13 54 34.8 54 21.17 0 0 0 0 0.01 25 81.56 25 135 45 135 45 78.98 68.28 0 68.28 0"/><path d="M75.33,130.51Q82.62,138,94.78,138H95q12.62,0,19.83-7.26t7.22-20V59.38q0-11.35-7.36-18.56T95.71,33.61q-12.69,0-20.19,6.84T68,58.84v51.52q0,12.66,7.32,20.15ZM87,57.35h0A7,7,0,0,1,89.14,52a7.78,7.78,0,0,1,5.56-2,8.73,8.73,0,0,1,6,2A6.83,6.83,0,0,1,103,57.35v54.86a8.75,8.75,0,0,1-2.24,6.37,8,8,0,0,1-6.05,2.32A7.24,7.24,0,0,1,89,118.64a9.44,9.44,0,0,1-2-6.43V57.35Z"/><path d="M172,36v75.43a26.34,26.34,0,0,1-5.8,5.34c-2.1,1.4-3.84,2.09-5.22,2.09a4.41,4.41,0,0,1-3.81-1.58c-.78-1.05-1.17-2.75-1.17-5.11V36H138v83.09q0,8.85,3.22,13.28t9.58,4.42a21.4,21.4,0,0,0,10.65-3.16A40.63,40.63,0,0,0,172,124.4V135h18V36Z"/><path d="M54,174H10v13H25v79H39V187H54V174Zm23,75.57h0a17.83,17.83,0,0,1-4,3.66,7.06,7.06,0,0,1-3.59,1.42,3,3,0,0,1-2.62-1.08,5.86,5.86,0,0,1-.81-3.5V198H54v56.79q0,6.07,2.19,9.1a7.46,7.46,0,0,0,6.48,3,14.26,14.26,0,0,0,7.2-2.17A27.15,27.15,0,0,0,77,258.44V265H90V197l-13,1v51.57Zm49.46-53.38h0a12.14,12.14,0,0,0-5.93,1.62,19.89,19.89,0,0,0-5.53,4.73V173H102v92h13v-5.22a17.2,17.2,0,0,0,5.5,4.58,14.67,14.67,0,0,0,6.73,1.5c3.82,0,6.72-1.28,8.75-3.85s3-6.26,3-11.09V213.23q0-8.33-3.22-12.68c-2.14-2.9-5.26-4.35-9.32-4.35ZM126,250.28h0q0,3.39-1.14,4.88a4.19,4.19,0,0,1-3.56,1.49,6.82,6.82,0,0,1-3.18-.77A11.48,11.48,0,0,1,115,253.4V209.27a10,10,0,0,1,2.73-2.16,6.1,6.1,0,0,1,2.78-.69,4.82,4.82,0,0,1,4.08,1.86,8.9,8.9,0,0,1,1.41,5.45v36.56ZM185,233h0V215.92q0-9.55-4.62-14.64t-13.28-5.09a18.37,18.37,0,0,0-13.78,5.49q-5.33,5.5-5.33,14.24V246q0,9.68,4.85,15.22t13.3,5.53q9.4,0,14.12-5.22T185,246v-5H172v4.66c0,4-.41,6.5-1.23,7.66S168.5,255,166.44,255a4.5,4.5,0,0,1-4.2-2c-.83-1.36-1.24-3.82-1.24-7.34V233Zm-24-16.88h0c0-2.84.44-4.89,1.3-6.11a4.84,4.84,0,0,1,4.27-1.85,4.69,4.69,0,0,1,4.14,1.85q1.29,1.84,1.29,6.11V223H161v-6.88Z"/></svg>