<svg xmlns="http://www.w3.org/2000/svg" width="40.48" height="67.3" viewBox="0 0 40.48 67.3">
  <title>soc-odn</title>
  <g id="Слой_2" data-name="Слой 2">
    <g id="Layer_1" data-name="Layer 1">
      <g>
        <path d="M39.88,36.15c-1-1.94-3.63-3.54-7.17-.75-4.78,3.77-12.47,3.77-12.47,3.77s-7.68,0-12.47-3.77c-3.54-2.79-6.2-1.19-7.16.75-1.68,3.36.21,5,4.49,7.74,3.65,2.34,8.67,3.22,11.91,3.54L14.3,50.14l-10,10a3.91,3.91,0,0,0,0,5.53l.46.46A3.87,3.87,0,0,0,7.48,67.3h0a3.89,3.89,0,0,0,2.76-1.14l10-10,10,10a3.92,3.92,0,0,0,5.53,0l.46-.46a3.92,3.92,0,0,0,0-5.53l-10-10-2.71-2.72c3.24-.33,8.2-1.21,11.82-3.53C39.66,41.14,41.55,39.51,39.88,36.15Z"/>
        <path d="M20.24,34.07a17,17,0,1,0-17-17A17,17,0,0,0,20.24,34.07Zm0-25.42A8.38,8.38,0,1,1,11.86,17,8.38,8.38,0,0,1,20.24,8.65Z"/>
      </g>
    </g>
  </g>
</svg>
