<svg xmlns="http://www.w3.org/2000/svg" width="64.13" height="40.84" viewBox="0 0 64.13 40.84">
  <title>soc-g</title>
  <g id="Слой_2" data-name="Слой 2">
    <g id="Layer_1" data-name="Layer 1">
      <g>
        <path d="M58.45,16.81H57.11v-1.2c0-1.71,0-3.41,0-5.12,0-.27-.29-.78-.47-.78-1.55-.06-3.11,0-4.76,0v7.12H44.71c0,.53,0,.9,0,1.25l.18,3.87c1.26.05,2.52.1,3.78.13,1,0,2.1,0,3.27,0v7h5.15V22h7V16.81Z"/>
        <path d="M38.22,16.21c-4.45.06-8.9,0-13.35,0-1.27,0-2.54,0-3.81,0-.24,0-.67.3-.67.46-.05,2.57,0,5.13,0,7.83h10.9c-.14.53-.23.92-.36,1.29-1.67,4.95-6.79,7.41-12.27,6.51A12,12,0,0,1,8.77,18.09a11.16,11.16,0,0,1,.87-2.75A12,12,0,0,1,23,8.59a11.5,11.5,0,0,1,5.11,2.65c2-2,3.91-3.93,6-6l-.5-.38A19.57,19.57,0,0,0,17,.31,20.38,20.38,0,0,0,.3,17a20.09,20.09,0,0,0,1.08,10.8,20.53,20.53,0,0,0,21.46,13,18.35,18.35,0,0,0,11.82-5.55c4.69-5,5.9-11,5.15-17.66C39.69,16.4,39.24,16.19,38.22,16.21Z"/>
      </g>
    </g>
  </g>
</svg>
