<svg xmlns="http://www.w3.org/2000/svg" width="276.43" height="276.43" viewBox="0 0 276.43 276.43">
  <title>zoom</title>
  <g id="Слой_2" data-name="Слой 2">
    <g id="Layer_1" data-name="Layer 1">
      <g>
        <path d="M192.25,156.25a103.39,103.39,0,0,0-162-126,103.4,103.4,0,0,0,126,162l9.94,9.93,36-36Zm-32.44,3.55a79.81,79.81,0,1,1,0-112.86A79.9,79.9,0,0,1,159.81,159.8Z"/>
        <path d="M270.22,240.22l-65.45-58.63-.42-.41-23.17,23.17.41.42,58.63,65.45a21.21,21.21,0,1,0,30-30Z"/>
        <path d="M132.16,91.3H115.67V74.81a12.37,12.37,0,1,0-24.73,0V91.3H74.45a12.37,12.37,0,1,0,0,24.73H90.94v16.49a12.37,12.37,0,0,0,24.73,0V116h16.49a12.37,12.37,0,1,0,0-24.73Z"/>
      </g>
    </g>
  </g>
</svg>
