<svg xmlns="http://www.w3.org/2000/svg" width="18" height="25.61" viewBox="0 0 18 25.61">
  <defs>
    <style>
      .cls-1 {
        fill: #8d8c8a;
      }
    </style>
  </defs>
  <title>lock</title>
  <g id="Слой_2" data-name="Слой 2">
    <g id="Ñëîé_1" data-name="Ñëîé 1">
      <path class="cls-1" d="M16.67,10.43h0V7.56A7.56,7.56,0,0,0,9.11,0H8.89A7.56,7.56,0,0,0,1.33,7.56v2.87h0a2.17,2.17,0,0,0-1.33,2v11a2.16,2.16,0,0,0,2.16,2.16H15.84A2.16,2.16,0,0,0,18,23.45v-11A2.17,2.17,0,0,0,16.67,10.43ZM2.1,10.27h0Zm-.52.08Zm0,0Zm.05,0Zm.05,0h0Zm.05,0h0Zm.05,0h0Zm.06,0h0Zm.05,0h0Zm.06,0H2Zm0,0h0ZM10.25,18v2.18a1.25,1.25,0,0,1-2.5,0V18A2,2,0,0,1,7,16.44a2,2,0,1,1,4.06,0A2,2,0,0,1,10.25,18Zm-6.4-7.77V7.56a5,5,0,0,1,5-5h.22a5,5,0,0,1,5,5v2.71Zm12.05,0h0Zm.52.08Zm-.05,0Zm-.05,0Zm-.05,0h0Zm-.05,0h0Zm0,0h0Zm-.06,0h0Zm-.05,0h0Zm-.06,0h0Zm-.05,0h0Z"/>
    </g>
  </g>
</svg>
